<svg width="243" height="61" viewBox="0 0 243 61" fill="none" xmlns="http://www.w3.org/2000/svg">
<path d="M39.7794 29.3188H5.0151C2.24745 29.3188 0 31.5165 0 34.2318V42.3099C0 42.4493 0.0162564 42.5847 0.0203205 42.728L0 42.7041V58.506C0 59.8358 1.45901 60.6758 2.64573 60.0269L11.5095 55.1776C12.0826 55.2533 12.6678 55.305 13.2612 55.305H39.4624C46.6518 55.305 52.7764 49.8267 53.0325 42.7877C53.3007 35.3983 47.2655 29.3228 39.7794 29.3228V29.3188Z" fill="#FFFCE6"/>
<path d="M5.0151 25.9822H26.9125C34.1019 25.9822 40.2265 20.5039 40.4825 13.4649C40.7507 6.07153 34.7115 0 27.2295 0H5.0151C2.24338 0 0 2.1977 0 4.91297V21.0692C0 23.7805 2.24338 25.9822 5.0151 25.9822Z" fill="#FFFCE6"/>
<path d="M112.671 30.7832C112.671 31.0619 112.671 31.5197 112.659 32.0453C112.647 32.4991 112.265 32.8614 111.801 32.8614H97.1989C96.5405 32.8614 96.1301 33.5542 96.4552 34.1156C97.3899 35.728 99.4179 37.2927 102.218 37.2927C104.856 37.2927 106.725 36.2854 107.656 35.6285C108.05 35.3537 108.595 35.4573 108.863 35.8514L110.728 38.5906C110.984 38.9648 110.887 39.4704 110.513 39.7372C109.257 40.625 106.262 42.3728 102.214 42.3728C95.431 42.3728 90.2005 37.2966 90.2005 30.8827C90.2005 24.4688 94.9596 19.3926 101.413 19.3926C107.867 19.3926 112.671 24.0547 112.671 30.7911V30.7832ZM105.977 28.8443C106.563 28.8443 106.981 28.2749 106.786 27.7335C106.185 26.0892 104.437 24.413 101.413 24.413C98.3897 24.413 96.8088 26.0733 96.2032 27.7375C96.0081 28.2789 96.4267 28.8443 97.012 28.8443H105.977Z" fill="#FFFCE6"/>
<path d="M136.835 30.7832C136.835 31.0619 136.835 31.5197 136.823 32.0453C136.811 32.4991 136.429 32.8614 135.966 32.8614H121.363C120.705 32.8614 120.295 33.5542 120.62 34.1156C121.554 35.728 123.582 37.2927 126.383 37.2927C129.02 37.2927 130.89 36.2854 131.82 35.6285C132.215 35.3537 132.759 35.4573 133.027 35.8514L134.893 38.5906C135.149 38.9648 135.051 39.4704 134.677 39.7372C133.422 40.625 130.426 42.3728 126.378 42.3728C119.595 42.3728 114.365 37.2966 114.365 30.8827C114.365 24.4688 119.124 19.3926 125.578 19.3926C132.032 19.3926 136.835 24.0547 136.835 30.7911V30.7832ZM130.142 28.8443C130.727 28.8443 131.146 28.2749 130.951 27.7335C130.349 26.0892 128.602 24.413 125.578 24.413C122.554 24.413 120.973 26.0733 120.368 27.7375C120.173 28.2789 120.591 28.8443 121.176 28.8443H130.142Z" fill="#FFFCE6"/>
<path d="M184.134 30.8632C184.134 37.2771 178.859 42.3533 172.218 42.3533C165.577 42.3533 160.298 37.2771 160.298 30.8632C160.298 24.4492 165.573 19.373 172.218 19.373C178.863 19.373 184.134 24.4055 184.134 30.8632ZM178.387 30.8632C178.387 27.4472 176.03 24.5408 172.218 24.5408C168.406 24.5408 166.049 27.4472 166.049 30.8632C166.049 34.2792 168.406 37.1855 172.218 37.1855C176.03 37.1855 178.387 34.2792 178.387 30.8632Z" fill="#FFFCE6"/>
<path d="M242.977 30.7832C242.977 31.0619 242.977 31.5197 242.965 32.0453C242.952 32.4991 242.57 32.8614 242.107 32.8614H227.505C226.846 32.8614 226.436 33.5542 226.761 34.1156C227.696 35.728 229.724 37.2927 232.524 37.2927C235.162 37.2927 237.031 36.2854 237.962 35.6285C238.356 35.3537 238.9 35.4573 239.169 35.8514L241.034 38.5906C241.29 38.9648 241.193 39.4704 240.819 39.7372C239.563 40.625 236.568 42.3728 232.52 42.3728C225.737 42.3728 220.506 37.2966 220.506 30.8827C220.506 24.4688 225.265 19.3926 231.719 19.3926C238.173 19.3926 242.977 24.0547 242.977 30.7911V30.7832ZM236.279 28.8443C236.864 28.8443 237.283 28.2749 237.088 27.7335C236.486 26.0892 234.739 24.413 231.715 24.413C228.691 24.413 227.111 26.0733 226.505 27.7375C226.31 28.2789 226.729 28.8443 227.314 28.8443H236.279Z" fill="#FFFCE6"/>
<path d="M77.593 19.4013C75.565 19.4013 74.0369 20.0702 72.9965 20.7589C72.3747 21.1849 72.0333 21.5273 71.635 22.5824C71.2286 23.6534 70.0093 22.9845 70.8222 22.0449C71.2408 21.5632 71.3424 20.9301 71.3586 20.4882C71.3464 20.4285 71.3342 20.3688 71.3342 20.3011V13.6124C71.3342 13.1506 70.9522 12.7764 70.4808 12.7764H66.5874C66.1159 12.7764 65.7339 13.1506 65.7339 13.6124V40.3909C65.7339 41.0319 66.437 41.434 67.006 41.1195L70.241 39.3358C70.6068 39.1328 71.066 39.2204 71.3261 39.5429C72.1146 40.5183 74.0775 42.3776 77.593 42.3776C83.3355 42.3776 88.3791 37.6239 88.3791 30.8875C88.3791 24.151 83.3355 19.3973 77.593 19.3973V19.4013ZM76.6582 37.1859C73.5492 37.1859 71.9195 35.0559 71.4684 34.3592C71.383 34.2238 71.3383 34.0725 71.3383 33.9133V27.8178C71.3383 27.6586 71.383 27.5033 71.4684 27.3719C71.9195 26.6752 73.5492 24.5452 76.6582 24.5452C80.4744 24.5452 82.7828 27.2684 82.7828 30.8675C82.7828 34.4667 80.4744 37.1899 76.6582 37.1899V37.1859Z" fill="#FFFCE6"/>
<path d="M150.747 19.4051C148.487 19.4051 146.866 20.2731 145.837 21.1052C145.768 21.1609 145.699 21.2007 145.626 21.2326C145.256 21.5551 144.992 21.9452 144.695 22.7216C144.285 23.7926 143.057 23.1237 143.878 22.1841C144.183 21.8338 144.354 21.0972 144.447 20.3726V13.6203C144.447 13.1584 144.065 12.7842 143.594 12.7842H139.701C139.229 12.7842 138.847 13.1584 138.847 13.6203V40.9959C138.847 41.4577 139.229 41.832 139.701 41.832H143.594C144.065 41.832 144.447 41.4577 144.447 40.9959V27.6584C144.447 27.5032 144.492 27.3519 144.573 27.2205C144.992 26.5556 146.447 24.5729 148.889 24.5729C151.332 24.5729 153.332 25.9106 153.332 29.0519V40.9959C153.332 41.4577 153.714 41.832 154.185 41.832H158.078C158.55 41.832 158.932 41.4577 158.932 40.9959V27.6664C158.932 22.4071 155.075 19.4051 150.747 19.4051Z" fill="#FFFCE6"/>
<path d="M211.371 19.4571C207.908 19.4571 205.913 21.1293 204.958 22.26C204.6 22.686 203.946 22.6661 203.604 22.2281C202.727 21.0974 200.845 19.4571 197.321 19.4571C194.924 19.4571 193.229 20.4803 192.156 21.4557C192.107 21.4995 192.054 21.5354 191.997 21.5672C191.656 21.8857 191.319 22.244 191.038 22.6302C190.36 23.5579 189.449 22.6979 190.217 22.0967C190.583 21.8101 190.721 21.408 190.733 20.978C190.725 20.9342 190.725 20.8904 190.725 20.8426C190.725 20.3808 190.323 20.0105 189.848 20.0105H186.3C185.828 20.0105 185.446 20.3848 185.446 20.8466V40.9921C185.446 41.454 185.828 41.8282 186.3 41.8282H190.331C190.803 41.8282 191.185 41.454 191.185 40.9921V27.6029C191.185 27.4516 191.225 27.3083 191.302 27.1769C191.697 26.524 193.083 24.5691 195.541 24.5691C198.35 24.5691 199.524 26.1856 199.524 29.1835V40.9921C199.524 41.454 199.906 41.8282 200.378 41.8282H204.271C204.742 41.8282 205.124 41.454 205.124 40.9921V27.6029C205.124 27.4516 205.165 27.3083 205.242 27.1769C205.637 26.524 207.022 24.5691 209.481 24.5691C212.289 24.5691 213.46 26.1856 213.46 29.1835V40.9921C213.46 41.454 213.842 41.8282 214.313 41.8282H218.345C218.816 41.8282 219.198 41.454 219.198 40.9921V27.7861C219.198 22.5387 215.898 19.4531 211.371 19.4531V19.4571Z" fill="#FFFCE6"/>
</svg>
